<?xml version="1.0" encoding="UTF-8" standalone="no"?>
<!-- Created with Inkscape (http://www.inkscape.org/) -->
<svg
   xmlns:svg="http://www.w3.org/2000/svg"
   xmlns="http://www.w3.org/2000/svg"
   version="1.0"
   width="10"
   height="10"
   id="svg2">
  <defs
     id="defs4" />
  <g
     id="layer1">
    <path
       d="M 1.7045917,0.50103857 C 1.6098195,0.49747178 1.520514,0.51466343 1.4256152,0.53598014 C 1.008641,0.61076482 0.67213848,0.93208523 0.55381408,1.3396362 C 0.4354897,1.747187 0.55579332,2.1705317 0.86766246,2.4577663 L 3.4133219,5.0085008 L 0.83279047,7.5592351 C 0.38982651,8.0030821 0.38982645,8.7227001 0.83279047,9.1665472 C 1.2757543,9.6103942 1.9939406,9.6103942 2.4369045,9.1665472 L 5.0174361,6.6158127 L 7.5630955,9.1665472 C 8.0060595,9.6103942 8.7242457,9.6103942 9.1672096,9.1665472 C 9.610174,8.7227001 9.610174,8.0030821 9.1672096,7.5592351 L 6.6215502,5.0085008 L 9.1323376,2.4577663 C 9.4442067,2.1705317 9.5645103,1.747187 9.4461861,1.3396362 C 9.3278616,0.93208523 8.9913591,0.61076482 8.5743849,0.53598014 C 8.1947901,0.45071331 7.7982903,0.56990042 7.5282236,0.85045425 L 5.0174361,3.4011885 L 2.4717767,0.85045425 C 2.2692266,0.64003893 1.9889081,0.51173896 1.7045917,0.50103857 z "
       style="fill:#ffffff;fill-opacity:0.31840796;fill-rule:evenodd;stroke:#ffffff;stroke-width:1.00113499;stroke-linecap:round;stroke-linejoin:miter;stroke-opacity:0.42786069"
       id="path2160" />
  </g>
</svg>
